<?xml version="1.0" encoding="UTF-8" standalone="no"?>
<!-- Created with Inkscape (http://www.inkscape.org/) -->
<svg
   xmlns:dc="http://purl.org/dc/elements/1.1/"
   xmlns:cc="http://creativecommons.org/ns#"
   xmlns:rdf="http://www.w3.org/1999/02/22-rdf-syntax-ns#"
   xmlns:svg="http://www.w3.org/2000/svg"
   xmlns="http://www.w3.org/2000/svg"
   xmlns:sodipodi="http://sodipodi.sourceforge.net/DTD/sodipodi-0.dtd"
   xmlns:inkscape="http://www.inkscape.org/namespaces/inkscape"
   width="256"
   height="256"
   id="svg2"
   sodipodi:version="0.32"
   inkscape:version="0.46"
   sodipodi:docname="Classical 典.svg"
   inkscape:output_extension="org.inkscape.output.svg.inkscape"
   version="1.0">
  <sodipodi:namedview
     id="base"
     pagecolor="#ffffff"
     bordercolor="#666666"
     borderopacity="1.0"
     gridtolerance="10000"
     guidetolerance="10"
     objecttolerance="10"
     inkscape:pageopacity="0.0"
     inkscape:pageshadow="2"
     inkscape:zoom="0.35"
     inkscape:cx="-16.428571"
     inkscape:cy="520"
     inkscape:document-units="px"
     inkscape:current-layer="layer1"
     showgrid="false"
     inkscape:window-width="1280"
     inkscape:window-height="722"
     inkscape:window-x="0"
     inkscape:window-y="29" />
  <defs
     id="defs4">
    <inkscape:perspective
       sodipodi:type="inkscape:persp3d"
       inkscape:vp_x="0 : 526.18109 : 1"
       inkscape:vp_y="0 : 1000 : 0"
       inkscape:vp_z="744.09448 : 526.18109 : 1"
       inkscape:persp3d-origin="372.04724 : 350.78739 : 1"
       id="perspective10" />
  </defs>
  <metadata
     id="metadata7">
    <rdf:RDF>
      <cc:Work
         rdf:about="">
        <dc:format>image/svg+xml</dc:format>
        <dc:type
           rdf:resource="http://purl.org/dc/dcmitype/StillImage" />
      </cc:Work>
    </rdf:RDF>
  </metadata>
  <g
     inkscape:label="Layer 1"
     inkscape:groupmode="layer"
     id="layer1">
    <text
       xml:space="preserve"
       style="font-size:40px;font-style:normal;font-weight:normal;line-height:125%;fill:#000000;fill-opacity:1;stroke:none;stroke-width:1px;stroke-linecap:butt;stroke-linejoin:miter;stroke-opacity:1;font-family:Bitstream Vera Sans"
       x="62.85714"
       y="160.93361"
       id="text2383"
       sodipodi:linespacing="125%"><tspan
         sodipodi:role="line"
         id="tspan2385"
         x="62.85714"
         y="160.93361"
         style="font-size:144px;font-style:normal;font-variant:normal;font-weight:normal;font-stretch:normal;text-align:start;line-height:125%;writing-mode:lr-tb;text-anchor:start;font-family:'王漢宗中隸書繁';-inkscape-font-specification:'王漢宗中隸書繁'" /></text>
    <path
       style="font-size:40px;font-style:normal;font-weight:normal;line-height:125%;fill:#000000;fill-opacity:1;stroke:none;stroke-width:1px;stroke-linecap:butt;stroke-linejoin:miter;stroke-opacity:1;font-family:Bitstream Vera Sans"
       d="M 107.28906,56.90625 C 108.98169,54.172008 112.04158,53.325655 116.46875,54.367188 C 122.32803,58.01315 124.28115,63.221478 122.32812,69.992188 C 121.8072,73.117302 123.56501,74.744904 127.60156,74.875 L 133.65625,74.875 C 137.04156,74.875112 138.66916,73.377718 138.53906,70.382812 C 138.27854,67.127724 138.21343,63.872519 138.34375,60.617188 C 139.38531,55.669402 141.98947,53.390759 146.15625,53.78125 C 153.578,55.343882 156.31237,60.87773 154.35938,70.382812 C 153.578,73.768343 155.1405,75.526153 159.04688,75.65625 C 164.38528,75.78657 169.72382,76.372507 175.0625,77.414062 C 182.74464,79.237087 186.26026,84.705832 185.60938,93.820312 C 184.17693,98.507901 183.33057,103.71623 183.07031,109.44531 C 182.41912,121.68496 181.24724,132.94797 179.55469,143.23438 C 179.16391,146.22921 181.05193,147.98702 185.21875,148.50781 C 196.28629,149.67972 207.5493,151.04691 219.00781,152.60938 C 220.96074,153.00003 222.13262,154.17191 222.52344,156.125 C 222.26283,158.33857 221.02585,160.61721 218.8125,162.96094 C 213.21336,170.90366 206.89826,172.66147 199.86719,168.23438 C 176.42954,158.20836 147.06759,153.91149 111.78125,155.34375 C 91.729103,155.99482 73.304642,159.57555 56.507812,166.08594 C 52.210913,168.55991 48.760396,169.73179 46.15625,169.60156 C 44.0729,170.25262 41.729153,169.34116 39.125,166.86719 C 37.041657,162.70055 37.302074,159.05472 39.90625,155.92969 C 44.984358,149.41931 50.583311,146.88025 56.703125,148.3125 L 72.328125,147.72656 C 75.453077,147.46619 76.885368,145.38285 76.625,141.47656 C 75.322869,126.11204 74.216099,110.68237 73.304688,95.1875 C 72.393185,87.3751 73.369746,81.645939 76.234375,78 C 81.963487,75.395945 90.557229,74.354279 102.01562,74.875 C 105.14055,74.875112 106.63794,72.921989 106.50781,69.015625 C 105.46607,63.677207 105.72648,59.640753 107.28906,56.90625 M 138.92969,90.890625 C 138.92958,87.895933 137.17177,86.398538 133.65625,86.398438 C 131.57281,86.528746 129.29417,86.463642 126.82031,86.203125 C 122.91397,86.724059 120.96084,88.546974 120.96094,91.671875 L 120.96094,103.39062 C 120.96084,106.51571 122.91397,108.0782 126.82031,108.07812 L 133.46094,108.07812 C 136.58583,108.0782 138.27854,106.12508 138.53906,102.21875 L 138.92969,90.890625 M 156.50781,87.570312 C 153.25248,87.309996 151.49467,89.067806 151.23438,92.84375 L 150.84375,103 C 150.84363,106.12508 152.79675,107.68758 156.70312,107.6875 L 165.10156,107.49219 C 168.22642,107.23185 169.85402,105.40894 169.98438,102.02344 C 170.37486,98.638109 170.43996,95.252696 170.17969,91.867188 C 166.40351,89.393327 161.84622,87.961037 156.50781,87.570312 M 103.57812,87.765625 C 96.807223,88.677182 91.663999,89.849056 88.148438,91.28125 C 87.367128,92.45322 86.976503,94.536551 86.976562,97.53125 L 86.976562,101.24219 C 87.367128,105.14852 89.515563,107.29695 93.421875,107.6875 L 103.96875,108.27344 C 106.96346,108.27352 108.46086,106.64591 108.46094,103.39062 C 108.59107,99.875087 108.46086,96.359466 108.07031,92.84375 C 108.07023,89.328223 106.57284,87.635516 103.57812,87.765625 M 108.46094,126.04688 C 108.46086,122.92194 106.89836,121.29434 103.77344,121.16406 L 94.203125,121.55469 C 90.687437,121.81517 89.059835,123.76829 89.320312,127.41406 L 91.078125,140.5 C 91.078062,144.14588 92.445248,145.83858 95.179688,145.57812 L 103.57812,144.79688 C 106.83325,144.79692 108.46086,143.23442 108.46094,140.10938 L 108.46094,126.04688 M 137.36719,127.21875 C 137.62749,122.79173 136.1952,120.57819 133.07031,120.57812 L 126.42969,120.57812 C 123.17438,120.57819 121.61189,122.59642 121.74219,126.63281 C 121.74209,130.92974 121.93741,135.22661 122.32812,139.52344 C 122.32803,142.77869 123.89053,144.40629 127.01562,144.40625 L 131.3125,144.40625 C 134.43739,144.40629 136.1301,142.45317 136.39062,138.54688 L 137.36719,127.21875 M 162.95312,120.77344 L 155.33594,120.77344 C 152.21081,120.7735 150.51811,122.72663 150.25781,126.63281 L 149.86719,140.30469 C 149.86707,143.42973 151.82019,145.12244 155.72656,145.38281 L 160.80469,145.77344 C 163.92955,146.1641 165.68736,144.40629 166.07812,140.5 L 167.64062,127.02344 C 168.16132,123.50788 166.59882,121.42454 162.95312,120.77344 M 98.890625,167.25781 C 103.05722,162.0495 107.02857,161.52867 110.80469,165.69531 C 117.96606,172.85679 116.59887,178.45574 106.70312,182.49219 C 101.2343,185.09636 96.025973,188.28646 91.078125,192.0625 C 85.348901,195.96874 80.140573,198.89843 75.453125,200.85156 C 73.369746,202.28384 71.025998,201.89321 68.421875,199.67969 C 67.770793,198.37759 68.421834,196.81509 70.375,194.99219 C 76.234327,188.61198 85.739525,179.3672 98.890625,167.25781 M 151.625,164.91406 C 156.8332,162.96096 162.36705,164.97919 168.22656,170.96875 C 170.96079,174.7448 176.10402,180.14844 183.65625,187.17969 C 189.25505,191.99739 189.97119,195.83853 185.80469,198.70312 C 184.24203,199.35415 181.96339,198.70311 178.96875,196.75 C 172.19777,191.54166 164.38528,186.65885 155.53125,182.10156 C 151.49467,179.4974 149.28113,177.21876 148.89062,175.26562 C 147.1978,171.22918 148.10925,167.77867 151.625,164.91406"
       id="text2388" />
  </g>
</svg>
